# xmcd
# 
# Track frame offsets:
#     150
#     25047
#     36777
#     46782
#     65967
#     71057
#     82217
#     91395
#     97892
#     108272
#     112650
#     134745
#     151312
#     174875
#     195835
#     215257
#     228682
#     244762
#     255532
#     266495
#     281387
#     294682
#     311112
#     324960
# 
# Disc length: 4517
# 
# Revision: 1
# Processed by: cddbd v1.5.2PL0 Copyright (c) Steve Scherf et al.
# Submitted via: fre:ac v1.0.27
# 
DISCID=4e11a318
DTITLE=Peter Fischer - Blues Guitar Rules
DYEAR=1993
DGENRE=Blues
TTITLE0=Einfache Begleitpattern
TTITLE1=Turnarounds
TTITLE2=Easy Blues Leadgitarre
TTITLE3=Easy und Early Blues Styles
TTITLE4=Grundlagen des Blues Teil 2
TTITLE5=60's und 70's Blues Rock
TTITLE6=Texas Blues
TTITLE7=Fusion Blues
TTITLE8=Modern Blues Rock
TTITLE9=Dominant-Jazzblues
TTITLE10=Jazzblues-Comping
TTITLE11=Jazzblues-Turnarounds
TTITLE12=Jazzblues-Licks und -Lines
TTITLE13=Dominantbluesformen
TTITLE14=Mollbluesformen
TTITLE15=B.B. King Stil
TTITLE16=Albert King Stil
TTITLE17=Larry Carlton Stil
TTITLE18=Robben Ford Stil
TTITLE19=Gary Moore Stil
TTITLE20=Modern Metal Stil
TTITLE21=Dominant Jazzblues
TTITLE22=Moll Jazzblues
TTITLE23=Major Jazzblues
EXTD=
EXTT0=
EXTT1=
EXTT2=
EXTT3=
EXTT4=
EXTT5=
EXTT6=
EXTT7=
EXTT8=
EXTT9=
EXTT10=
EXTT11=
EXTT12=
EXTT13=
EXTT14=
EXTT15=
EXTT16=
EXTT17=
EXTT18=
EXTT19=
EXTT20=
EXTT21=
EXTT22=
EXTT23=
PLAYORDER=
